# xmcd
#
# Track frame offsets:
#	183
#	27750
#	38535
#	46328
#	52040
#	67268
#	90168
#	113330
#	128328
#
# Disc length: 2026 seconds
#
# Revision: 2
# Processed by: cddbd v1.5.2PL0 Copyright (c) Steve Scherf et al.
# Submitted via: EasyCDDAExtractor 5.1.0
#
DISCID=6307e809
DTITLE=verdi - ricardo muti - La Forza Del Destino [CD 3)
DYEAR=1986
DGENRE=Opera
TTITLE0=FATE LA CARITA, E UN'ORA CHE ASPETTIAMO!
TTITLE1=AUF! PAZIENZA NON V'HA CHE BASTI!
TTITLE2=DEL MONDO I DISINGANNI...
TTITLE3=GIUNGE QUALCUNO, APRITE...
TTITLE4=INVANO ALVARO TI CELASTI AL MONDO...
TTITLE5=LE MINACCIE, I FIERI ACCENTI...
TTITLE6=PACE, PACE MIO DIO!
TTITLE7=IO MUOIO! CONFESSIONE!
TTITLE8=NON IMPRECARE, UMILIATI A LUI CH'E GIUSTO E SANTO...
EXTD=YEAR: 1986 ID3G: 103
EXTT0=
EXTT1=
EXTT2=
EXTT3=
EXTT4=
EXTT5=
EXTT6=
EXTT7=
EXTT8=
PLAYORDER=
